PathFileType	4	(X/Y/Z)	c:/Users/goper/Files/vsCode/490R/osim_files/C07/C07_SSWS_05.trc
DataRate	CameraRate	NumFrames	NumMarkers	Units                	OrigDataRate	OrigDataStartFrame	OrigNumFrames
250.00	250.00	9	36	mm	250.0	2222	2962
                Frame#	Time	LPSIS			LASIS			LTH1			LTH2			LTH3			LTH4			LLFE			LMFE			LSH1			LSH2			LSH3			LSH4			LLMAL			LMMAL			LCAL			LMTP5			LTOE			LMTP1			RPSIS			RASIS			RTH1			RTH2			RTH3			RTH4			RLFE			RMFE			RSH1			RSH2			RSH3			RSH4			RLMAL			RMMAL			RCAL			RMTP1			RTOE			RMTP5		
		X1	Y1	Z1	X2	Y2	Z2	X3	Y3	Z3	X4	Y4	Z4	X5	Y5	Z5	X6	Y6	Z6	X7	Y7	Z7	X8	Y8	Z8	X9	Y9	Z9	X10	Y10	Z10	X11	Y11	Z11	X12	Y12	Z12	X13	Y13	Z13	X14	Y14	Z14	X15	Y15	Z15	X16	Y16	Z16	X17	Y17	Z17	X18	Y18	Z18	X19	Y19	Z19	X20	Y20	Z20	X21	Y21	Z21	X22	Y22	Z22	X23	Y23	Z23	X24	Y24	Z24	X25	Y25	Z25	X26	Y26	Z26	X27	Y27	Z27	X28	Y28	Z28	X29	Y29	Z29	X30	Y30	Z30	X31	Y31	Z31	X32	Y32	Z32	X33	Y33	Z33	X34	Y34	Z34	X35	Y35	Z35	X36	Y36	Z36

2222	8.88400	-1221.29688	1015.05688	324.27640	-1396.83386	995.12103	393.50082	-1340.12793	794.28027	440.51038	-1352.75964	716.30017	438.78979	-1365.00879	642.45990	426.10751	-1430.10559	732.09991	417.07870	-1350.00513	517.47296	403.32965	-1341.38977	505.26047	283.12219	-1333.37463	324.03033	409.21106	-1319.63000	279.66617	393.99289	-1370.81226	333.30493	393.46970	-1370.18152	288.27954	384.66696	-1326.99426	101.20930	345.39575	-1347.51794	127.97918	272.56943	-1268.48669	44.76920	297.97183	-1453.44128	38.50564	368.12863	-1508.87500	52.55932	312.73315	-1476.54028	40.75763	261.93921	-1218.04407	1015.68396	225.26485	-1372.86804	986.19818	140.97540	-1358.59912	829.55078	84.86506	-1383.27112	754.92590	78.62988	-1406.66052	676.59973	80.36252	-1453.06201	775.25085	106.53313	-1434.92249	511.24301	101.59473	-1446.44910	516.19220	219.10239	-1273.34607	440.10941	102.02731	-1253.74438	384.75082	93.97554	-1313.49792	393.47446	96.43850	-1278.17200	366.64886	100.76348	-1108.89612	294.43408	143.93419	-1139.73792	274.71936	217.42650	-1046.15857	311.11740	195.55035	-1135.19507	122.35692	224.94154	-1152.67212	106.29176	174.91107	-1108.66943	134.70975	118.15453
2223	8.88800	-1225.21655	1015.43958	323.97110	-1400.63733	995.22125	393.85327	-1343.50146	794.47064	440.29510	-1355.88953	716.49316	438.66302	-1367.69104	642.57599	426.06201	-1433.21558	731.98029	417.19858	-1352.07471	517.49976	403.02283	-1343.81055	505.47324	282.90811	-1334.88574	324.25787	408.98996	-1320.85120	279.75436	393.78900	-1372.08081	333.29813	393.24213	-1371.36609	288.28778	384.44156	-1327.12598	101.40380	345.19763	-1347.67871	127.97318	272.41965	-1268.14368	44.84761	298.32892	-1453.48254	38.53799	368.06949	-1508.89929	52.48446	312.67111	-1476.58606	40.73339	261.90112	-1221.99011	1016.11725	225.13022	-1377.16394	986.76654	141.24686	-1363.96326	830.58533	84.83861	-1389.48938	756.13403	78.54960	-1413.48425	678.03369	80.16112	-1458.82935	776.91840	106.80756	-1442.82178	512.79559	101.38089	-1454.32629	517.80920	218.84808	-1281.66260	440.79529	101.86356	-1262.40710	385.34103	93.51633	-1322.22827	394.46848	96.11158	-1286.96985	367.28992	100.28303	-1118.33398	293.69894	143.47063	-1149.35034	274.11655	216.84964	-1054.97290	308.88068	194.84592	-1147.51270	121.71635	223.52934	-1165.66406	106.42005	173.49268	-1121.58899	134.43387	116.59973
2224	8.89200	-1229.29126	1015.69275	323.90591	-1405.91553	995.63300	394.53934	-1346.93372	794.65289	439.96823	-1358.79297	716.59760	438.59735	-1370.46118	642.74200	426.01114	-1436.16284	731.93298	417.23135	-1354.22559	517.48676	402.64398	-1346.14209	505.60535	282.63147	-1336.09924	324.33444	408.66013	-1321.89832	280.23007	393.37952	-1373.66968	333.29971	392.91537	-1372.52686	288.19583	384.13342	-1327.31030	101.64486	344.96692	-1347.94812	128.04381	272.24188	-1268.16638	44.99126	298.17944	-1453.51489	38.54594	368.00281	-1508.94141	52.43146	312.63077	-1476.63013	40.70908	261.85220	-1225.98059	1016.59424	225.01103	-1381.31555	987.40247	141.62440	-1369.16345	831.55884	84.74547	-1395.45251	757.25165	78.27077	-1420.14978	679.30286	79.90980	-1464.54736	778.55664	106.98740	-1450.62646	514.38422	101.10558	-1462.23401	519.52887	218.62172	-1289.93201	441.27335	101.67442	-1271.13257	385.79263	93.13611	-1330.81030	395.24405	95.83527	-1295.89722	367.78860	99.86129	-1127.73242	292.65265	142.97273	-1158.96362	273.26093	216.35071	-1063.84668	306.41238	194.23962	-1159.83496	120.89050	222.04691	-1178.78174	106.40393	171.97157	-1134.39233	133.89302	115.08794
2225	8.89600	-1232.96216	1015.83105	323.75757	-1408.32642	995.38855	394.47797	-1349.13757	794.74695	440.11334	-1361.74561	716.72620	438.47162	-1373.30408	642.77124	425.87393	-1439.27710	731.76215	417.30643	-1356.40759	517.58624	402.38141	-1348.52795	505.80923	282.33466	-1337.70203	324.57123	408.46008	-1323.20032	280.26169	393.34259	-1375.06299	333.28763	392.59195	-1373.82385	288.25882	383.93201	-1327.53687	101.92307	344.78104	-1348.24792	128.08786	271.99167	-1267.77661	45.21706	299.13174	-1453.55359	38.58015	367.91742	-1508.99072	52.37598	312.59558	-1476.66235	40.67015	261.79788	-1230.05237	1016.86542	224.94093	-1385.56567	987.94489	141.92357	-1374.36206	832.53009	84.60046	-1401.35339	758.35791	78.10253	-1426.68579	680.52014	79.61142	-1470.14160	780.13037	107.29007	-1458.34753	515.91486	100.83600	-1469.87170	521.19037	218.42697	-1298.04199	441.55246	101.40099	-1279.83472	385.91727	92.71912	-1339.60547	395.90271	95.60465	-1304.82996	368.08728	99.46878	-1137.31555	291.44690	142.50911	-1168.71509	272.20285	215.84721	-1072.93213	303.75751	193.66649	-1172.31873	119.97401	220.46402	-1191.69397	106.16373	170.45837	-1147.15601	133.25961	113.54543
2226	8.90000	-1237.12012	1015.98083	323.68317	-1411.91614	995.35120	394.73807	-1352.39868	794.85468	440.01294	-1364.76892	716.74329	438.36191	-1376.03809	642.77948	425.75784	-1442.33203	731.60999	417.32468	-1358.73193	517.99524	402.82916	-1350.88123	505.89188	282.02267	-1339.07117	324.69333	408.19260	-1324.41650	280.44870	392.92035	-1376.52454	333.28461	392.33310	-1375.09216	288.18909	383.55975	-1327.70117	102.11467	344.60455	-1348.51575	128.17407	271.77423	-1268.40845	45.30263	297.89865	-1453.57776	38.59409	367.86264	-1508.44202	51.84969	313.23849	-1476.68628	40.62434	261.72964	-1234.06079	1017.21637	224.87181	-1389.71460	988.57715	142.22542	-1379.89136	833.42474	84.53130	-1407.16492	759.54834	77.93925	-1433.19031	681.85254	79.29918	-1475.69019	781.70941	107.59797	-1466.07971	517.42560	100.65189	-1477.32178	522.79010	218.11856	-1306.20190	441.53809	101.13353	-1288.62402	385.87033	92.34406	-1348.18579	396.41809	95.32840	-1313.76697	368.21066	99.18826	-1147.11353	289.83096	142.09096	-1178.52832	270.85269	215.36333	-1082.21118	300.81845	193.26529	-1184.83594	118.75452	218.89136	-1204.43982	105.63270	168.83748	-1159.82898	132.49002	111.98892
2227	8.90400	-1240.88184	1016.00861	323.54276	-1415.94714	995.40753	395.13934	-1355.58728	794.84033	439.88220	-1367.66577	716.76227	438.30530	-1378.67590	642.68188	425.64499	-1444.00854	730.84454	416.83282	-1361.00696	518.02594	402.54126	-1353.22852	506.01038	281.72318	-1340.56055	324.88971	407.96161	-1325.60144	280.63699	392.76306	-1378.05408	333.17776	391.99017	-1376.32800	288.20599	383.34070	-1327.80432	102.22591	344.43698	-1348.72986	128.21083	271.58868	-1268.42627	45.36037	297.83673	-1453.59058	38.56418	367.83670	-1508.52063	51.76160	313.25073	-1476.73511	40.57674	261.68079	-1238.01416	1017.46680	224.80017	-1393.96912	989.09241	142.54382	-1385.16321	834.31061	84.45677	-1412.99744	760.63306	77.71759	-1439.69556	683.23499	79.02316	-1481.21936	783.28851	107.85291	-1473.51282	519.01587	100.40600	-1484.66711	524.39954	217.89999	-1314.99133	440.91968	101.40567	-1297.44629	385.61801	91.99825	-1356.89929	396.74646	95.05765	-1322.87585	368.20026	98.84108	-1156.78357	288.14178	141.64009	-1188.50024	269.26627	214.90422	-1091.50220	297.75052	192.91786	-1197.65002	117.45596	217.30673	-1217.77014	105.20307	167.19635	-1172.43896	131.49150	110.52589
2228	8.90800	-1244.81360	1016.10486	323.57922	-1419.83447	995.41479	395.40399	-1358.67078	794.86658	439.79712	-1370.60547	716.71381	438.20074	-1381.70447	642.48486	425.42108	-1447.32983	730.73651	416.94083	-1363.18896	517.99530	402.21851	-1355.63855	506.12091	281.44226	-1342.05200	324.90750	407.69608	-1327.12695	280.56226	393.23822	-1379.55359	333.11862	391.68317	-1377.60352	288.11926	383.02557	-1327.96399	102.33591	344.28683	-1348.97791	128.25362	271.39136	-1268.46399	45.41752	297.80780	-1453.58997	38.56940	367.79852	-1508.55420	51.70024	313.23975	-1476.81140	40.55625	261.54889	-1242.03674	1017.70032	224.74652	-1398.04456	989.66943	142.84380	-1390.69861	835.15479	84.36606	-1418.68091	761.83252	77.53170	-1446.06287	684.54303	78.80447	-1486.61694	784.82550	108.19023	-1481.01562	520.48657	100.19602	-1491.93958	526.00323	217.69485	-1323.16687	440.59479	100.97102	-1306.33130	385.22165	91.59784	-1365.56995	396.97754	94.75091	-1331.91431	368.02759	98.54004	-1166.47266	286.28873	141.16675	-1198.76611	267.47473	214.28300	-1101.11243	294.42908	192.69563	-1210.58203	116.02512	215.61217	-1231.58337	104.84238	165.53450	-1184.99646	130.29990	108.96868
2229	8.91200	-1248.73950	1016.09094	323.40976	-1425.15491	995.61841	396.10001	-1361.79358	794.88989	439.71103	-1373.42712	716.64252	438.13016	-1384.82336	642.10999	425.29868	-1450.22168	730.48694	416.90909	-1365.35107	517.92700	401.91943	-1357.94153	506.18042	281.09689	-1343.59351	325.07935	407.51047	-1328.70618	280.27884	393.82779	-1380.93970	333.01147	391.36572	-1378.88904	288.02573	382.73572	-1328.01074	102.31698	344.09460	-1349.14612	128.23378	271.24335	-1268.53235	45.44907	297.78409	-1453.60046	38.54274	367.76721	-1508.59875	51.57785	313.26120	-1476.94312	40.61801	261.60715	-1246.08838	1017.88239	224.74382	-1402.21338	990.24036	143.12880	-1396.14661	836.00372	84.28880	-1424.51868	762.95099	77.41137	-1452.48315	685.82312	78.52845	-1491.92139	786.30389	108.46490	-1488.46619	521.97083	100.05778	-1499.02271	527.53625	217.45430	-1331.22546	440.18311	100.67684	-1315.24011	384.57068	91.16860	-1374.31921	397.04803	94.48143	-1341.06030	367.73135	98.21316	-1175.97852	284.72964	140.17505	-1208.32690	265.46487	214.07352	-1110.69983	290.91275	192.44339	-1223.50342	114.44655	213.92317	-1245.50696	104.37138	163.80846	-1197.45203	129.01317	107.41320
2230	8.91600	-1252.60315	1016.07733	323.39758	-1427.25281	995.18945	395.96088	-1364.98181	794.87543	439.64978	-1376.32581	716.60901	437.98691	-1386.15491	642.39862	425.35858	-1453.20984	730.23578	416.80042	-1367.68079	517.91943	401.61365	-1360.29126	506.28519	280.79892	-1345.02307	325.15976	407.26904	-1330.15698	280.53528	393.60919	-1382.53894	332.93216	391.04312	-1380.22034	287.96451	382.47583	-1328.39441	102.60049	343.86429	-1349.40198	128.23196	271.08929	-1268.58276	45.58053	297.75018	-1453.61108	38.52451	367.75406	-1508.66370	51.52778	313.25504	-1477.19177	40.63468	261.06421	-1250.10156	1018.06946	224.71777	-1406.34387	990.74121	143.37776	-1401.54639	836.86810	84.25547	-1429.77881	764.26501	77.16227	-1458.67065	687.18506	78.30952	-1497.32996	787.85089	108.61620	-1495.72412	523.49762	99.86671	-1505.89502	529.03162	217.18991	-1339.43896	439.50232	100.37527	-1324.14148	383.93472	90.73912	-1382.98657	397.10291	94.16412	-1350.17065	367.26447	97.82603	-1185.87659	282.42572	139.82416	-1219.25623	263.37064	213.32872	-1120.67822	287.11819	192.37857	-1236.45044	112.66536	212.38055	-1259.16882	103.61086	161.97469	-1210.10632	127.54208	105.89162
